<?xml version="1.0" standalone="no"?>
<!DOCTYPE svg PUBLIC "-//W3C//DTD SVG 1.1//EN" "http://www.w3.org/Graphics/SVG/1.1/DTD/svg11.dtd" >
<svg xmlns="http://www.w3.org/2000/svg">
<metadata></metadata>
<defs>
<font id="sui_generisregular" horiz-adv-x="536" >
<font-face units-per-em="2048" ascent="1546" descent="-502" />
<missing-glyph horiz-adv-x="634" />
<glyph unicode="&#x28;C&#x29;" horiz-adv-x="1517" d="M121 285v839q0 285 272 285h729q276 0 277 -285v-841q0 -283 -277 -283h-729q-272 0 -272 285zM225 285q0 -176 168 -176h729q168 0 168 174v841q0 176 -168 176h-729q-168 0 -168 -176v-839zM420 608v193q0 287 276 286h344v-108h-344q-86 0 -127 -39t-41 -139v-193 q0 -180 168 -180h344v-106h-344q-276 0 -276 286z" />
<glyph unicode="&#x28;R&#x29;" horiz-adv-x="1517" d="M119 285v839q0 285 274 285h729q274 0 275 -285v-841q0 -283 -275 -283h-729q-274 0 -274 285zM225 285q0 -178 168 -179h729q168 0 168 177v841q0 176 -168 176h-729q-168 0 -168 -176v-839zM467 322v765h412q207 0 206 -215v-69q0 -195 -198 -199l207 -282h-131 l-193 280h-195v-280h-108zM575 692h285q59 0 89 24.5t30 80.5v75q0 106 -119 107h-285v-287z" />
<glyph horiz-adv-x="0" />
<glyph unicode="&#xd;" horiz-adv-x="0" />
<glyph horiz-adv-x="634" />
<glyph unicode=" "  horiz-adv-x="634" />
<glyph unicode="&#x09;" horiz-adv-x="634" />
<glyph unicode="&#xa0;" horiz-adv-x="634" />
<glyph unicode="!" horiz-adv-x="567" d="M143 997v412h281v-412l-62 -538h-155zM156 0v297h256v-297h-256z" />
<glyph unicode="&#x22;" horiz-adv-x="819" d="M104 866zM104 1255v207h209v-207l-49 -389h-110zM514 1255v207h209v-207l-49 -389h-110z" />
<glyph unicode="#" horiz-adv-x="1439" d="M72 313v193h270v399h-270v191h270v313h195v-313h356v313h192v-313h273v-191h-273v-399h273v-193h-273v-313h-192v313h-356v-313h-195v313h-270zM537 506h356v399h-356v-399z" />
<glyph unicode="$" horiz-adv-x="1353" d="M96 158v239h766q59 0 82 23.5t23 87.5q0 66 -22.5 89.5t-82.5 23.5h-379q-365 0 -364 253v132q0 80 22.5 130t68.5 78.5t117.5 39t170.5 10.5h114v145h160v-145h426v-238h-690q-57 0 -79.5 -23.5t-22.5 -84.5q0 -59 22.5 -83t79.5 -24h381q365 0 364 -254v-139 q0 -80 -22.5 -130t-68.5 -80t-117.5 -40t-170.5 -10h-102v-158h-160v158h-516z" />
<glyph unicode="%" horiz-adv-x="2125" d="M113 0zM113 952v248q0 66 11.5 109.5t37 70.5t68.5 38t106 11h342q61 0 104.5 -11t70 -38t37.5 -71t11 -109v-248q0 -66 -11 -110t-37.5 -69.5t-69.5 -36.5t-105 -11h-342q-63 0 -106 11t-68.5 36.5t-37 69.5t-11.5 110zM283 952q0 -33 12.5 -45t42.5 -12h338 q33 0 44.5 12t11.5 45v248q0 33 -11.5 45t-44.5 12h-338q-31 0 -43 -12.5t-12 -44.5v-248zM452 0l1020 1409h195l-1024 -1409h-191zM1223 207v248q0 66 11.5 109.5t37 70.5t68.5 38t106 11h342q61 0 104.5 -11t70 -38t37.5 -71t11 -109v-248q0 -66 -11 -110t-37.5 -69.5 t-69.5 -36.5t-105 -11h-342q-63 0 -106 11t-68.5 36.5t-37 69.5t-11.5 110zM1393 207q0 -33 12.5 -45t42.5 -12h338q33 0 44.5 12t11.5 45v248q0 33 -11.5 45t-44.5 12h-338q-31 0 -43 -12.5t-12 -44.5v-248z" />
<glyph unicode="&#x26;" horiz-adv-x="1617" d="M104 449v65q0 94 23 160.5t63.5 113t99 75t130.5 44.5l-260 312v190h981v-281h-563l460 -532l176 231h349l-357 -430q86 -100 171 -199.5t171 -197.5h-366l-156 184q-45 -61 -85 -98t-80 -56.5t-81 -24.5t-88 -5h-160q-225 0 -326.5 111.5t-101.5 337.5zM379 471 q0 -117 37 -164t131 -47h104q27 0 55.5 2t56.5 14.5t51.5 39t41.5 75.5l-276 326q-53 -10 -91 -22.5t-63 -36t-36 -59.5t-11 -91v-37z" />
<glyph unicode="'" horiz-adv-x="409" d="M104 1255v207h209v-207l-49 -389h-110z" />
<glyph unicode="(" horiz-adv-x="669" d="M154 702q0 233 58 441.5t181 412.5h152q-129 -219 -193.5 -425.5t-64.5 -419.5q0 -215 60.5 -428t201.5 -441h-150q-125 209 -185 418t-60 442z" />
<glyph unicode=")" horiz-adv-x="669" d="M121 -158q135 223 197.5 432t62.5 426t-62.5 426t-195.5 430h153q121 -205 180.5 -412.5t59.5 -441.5q0 -233 -60.5 -443t-185.5 -417h-149z" />
<glyph unicode="*" horiz-adv-x="1017" d="M121 1075l43 142l272 -101v293h148v-293l264 101l51 -144l-272 -94l166 -219l-121 -96l-162 227l-166 -232l-121 93l172 227z" />
<glyph unicode="+" horiz-adv-x="1220" d="M119 657v146h418v418h145v-418h418v-146h-418v-417h-145v417h-418z" />
<glyph unicode="," horiz-adv-x="509" d="M133 0v297h256v-266l-162 -299l-92 47l84 221h-86z" />
<glyph unicode="-" horiz-adv-x="663" d="M59 510v178h545v-178h-545z" />
<glyph unicode="." horiz-adv-x="493" d="M121 0v297h254v-297h-254z" />
<glyph unicode="/" horiz-adv-x="1089" d="M-82 -158l991 1567h168l-995 -1567h-164z" />
<glyph unicode="0" horiz-adv-x="1789" d="M121 457v495q0 131 21.5 219.5t72.5 141.5t135 74.5t209 21.5h670q123 0 207 -21.5t136 -74.5t74.5 -141.5t22.5 -219.5v-495q0 -131 -22.5 -219t-74.5 -140.5t-136 -75t-207 -22.5h-670q-125 0 -209 22.5t-135 75t-72.5 140.5t-21.5 219zM395 457q0 -102 34 -140 t132 -38h668q96 0 130 37.5t34 140.5v495q0 102 -34 140t-130 38h-668q-98 0 -132 -37.5t-34 -140.5v-495z" />
<glyph unicode="1" horiz-adv-x="712" d="M29 1214l260 195h301v-1409h-277v1112l-145 -102z" />
<glyph unicode="2" horiz-adv-x="1622" d="M96 0v428q0 100 24.5 175t80 122t144.5 70.5t220 23.5h494q55 0 89 7.5t53.5 25.5t25.5 47t6 72q0 49 -6 79.5t-25.5 49t-55.5 24.5t-93 6h-871v279h871q252 0 357.5 -93t105.5 -296v-88q0 -88 -21.5 -152.5t-73 -107.5t-135.5 -63.5t-209 -20.5h-512q-100 0 -143 -29 t-43 -110v-173h1122v-276h-1405z" />
<glyph unicode="3" horiz-adv-x="1562" d="M94 0v276h940q74 0 113 32t39 128t-43 129t-109 33h-549v174l445 356h-787v281h1239v-254l-446 -344q92 0 189.5 -5t175 -36t128 -99.5t50.5 -197.5v-70q0 -92 -19.5 -165.5t-70 -127t-136.5 -82t-219 -28.5h-940z" />
<glyph unicode="4" horiz-adv-x="1495" d="M68 244v202l1073 963h202v-940h107v-225h-107v-244h-266v244h-1009zM446 469h631v569z" />
<glyph unicode="5" horiz-adv-x="1609" d="M109 608v801h1323v-279h-1041v-288h664q254 0 361.5 -88t107.5 -269v-79q0 -209 -100.5 -307.5t-336.5 -98.5h-976v276h964q92 0 128 35t36 133q0 94 -39 129t-145 35h-946z" />
<glyph unicode="6" horiz-adv-x="1753" d="M121 451v444q0 137 26.5 234.5t85 160t150.5 91t221 28.5h940v-279h-870q-70 0 -122 -10t-86 -35.5t-50.5 -71.5t-16.5 -118v-215q18 41 46 77t66 61.5t88 39.5t118 14h497q133 0 219.5 -28.5t137.5 -77.5t70.5 -114.5t19.5 -139.5v-104q0 -92 -19.5 -167t-69.5 -129.5 t-137 -83t-221 -28.5h-610q-129 0 -221 30.5t-150.5 89t-85 142.5t-26.5 189zM410 469q0 -92 46 -142.5t150 -50.5h600q98 0 136 44.5t38 142.5t-37.5 138t-136.5 40h-594q-37 0 -73.5 -10t-65.5 -31.5t-46 -53.5t-17 -77z" />
<glyph unicode="7" horiz-adv-x="1505" d="M57 1130v279h1393v-192l-840 -1217h-350l819 1130h-1022z" />
<glyph unicode="8" horiz-adv-x="1728" d="M106 375v92q0 127 62.5 188.5t155.5 73.5q-184 31 -185 232v88q0 104 20.5 173.5t67.5 110.5t123 58.5t187 17.5h655q111 0 186.5 -17.5t122.5 -58.5t67.5 -110.5t20.5 -173.5v-88q0 -201 -184 -232q92 -12 154.5 -73.5t62.5 -188.5v-92q0 -109 -24.5 -181.5t-77 -115.5 t-133 -60.5t-193.5 -17.5h-659q-113 0 -194 17.5t-133 60.5t-77 115.5t-25 181.5zM381 408q0 -72 31.5 -102t122.5 -30h659q90 0 122 30t32 102v47q0 78 -30 109.5t-116 31.5h-678q-84 0 -113.5 -32t-29.5 -109v-47zM414 961q0 -72 26.5 -102t94.5 -30h659q66 0 93.5 30 t27.5 102v49q0 68 -26.5 94t-96.5 26h-655q-70 0 -96.5 -26.5t-26.5 -93.5v-49z" />
<glyph unicode="9" horiz-adv-x="1761" d="M102 897v104q0 92 19.5 167t70 129.5t136.5 83t219 28.5h610q129 0 221 -30.5t150.5 -89t86 -142.5t27.5 -189v-444q0 -137 -27.5 -234.5t-86 -160t-150.5 -91t-221 -28.5h-995v279h925q70 0 122.5 10t86 35.5t50 71.5t16.5 118v215q-37 -84 -110.5 -139t-204.5 -55h-500 q-133 0 -219 28.5t-136.5 78.5t-70 115.5t-19.5 139.5zM381 946q0 -98 38 -138t136 -40h596q37 0 73 10t64.5 30.5t46 53.5t17.5 76q0 92 -46 143.5t-151 51.5h-600q-98 0 -136 -44.5t-38 -142.5z" />
<glyph unicode=":" horiz-adv-x="542" d="M147 0v297h254v-297h-254zM147 639v299h254v-299h-254z" />
<glyph unicode=";" horiz-adv-x="546" d="M154 0v297h258v-266l-164 -299l-92 47l84 221h-86zM154 639v299h256v-299h-256z" />
<glyph unicode="&#x3c;" horiz-adv-x="1220" d="M121 635v168l981 508v-158l-838 -432l838 -410v-157z" />
<glyph unicode="=" horiz-adv-x="1220" d="M121 432v146h981v-146h-981zM121 889v145h981v-145h-981z" />
<glyph unicode="&#x3e;" horiz-adv-x="1220" d="M121 154v157l835 410l-835 432v158l981 -508v-168z" />
<glyph unicode="?" horiz-adv-x="1290" d="M63 1128v281h721q121 0 206 -19.5t138.5 -62.5t77 -112.5t23.5 -170.5v-59q0 -80 -19.5 -145.5t-67.5 -113.5t-128 -73.5t-201 -25.5h-113q-72 0 -99.5 -17.5t-27.5 -89.5v-61h-251v43q0 98 22.5 163.5t69.5 103.5t117.5 54.5t166.5 16.5h86q82 0 122 29.5t40 113.5 t-39 114.5t-123 30.5h-721zM319 0v297h256v-297h-256z" />
<glyph unicode="@" horiz-adv-x="1562" d="M119 88v827q0 344 409 345h533q190 0 285.5 -89.5t95.5 -281.5v-340q0 -147 -93.5 -219t-267.5 -72h-280q-268 0 -269 244v104q0 236 269 236h463v51q0 68 -16.5 105.5t-47.5 55t-75 21.5t-99 4h-510q-113 0 -160 -47t-47 -129v-805q0 -53 14.5 -87t46 -54t81 -27.5 t118.5 -7.5h861v-180h-902q-410 0 -409 346zM723 543q0 -61 26.5 -91t73.5 -30h262q90 0 134.5 31.5t44.5 107.5v139h-441q-47 0 -73.5 -30.5t-26.5 -91.5v-35z" />
<glyph unicode="A" horiz-adv-x="1878" d="M23 0l772 1409h288l772 -1409h-315l-176 328h-850l-176 -328h-315zM621 549h639l-320 584z" />
<glyph unicode="B" horiz-adv-x="1769" d="M123 0v1409h1122q111 0 186.5 -17.5t123 -58.5t67.5 -110.5t20 -173.5v-88q0 -201 -186 -232q92 -12 155.5 -73.5t63.5 -188.5v-92q0 -109 -24.5 -181.5t-76.5 -115.5t-134 -60.5t-195 -17.5h-1122zM399 276h846q92 0 124 30t32 102v51q0 78 -30 109.5t-116 31.5h-856 v-324zM399 825h848q66 0 93.5 30t27.5 101v54q0 68 -27.5 94t-95.5 26h-846v-305z" />
<glyph unicode="C" horiz-adv-x="1781" d="M121 457v495q0 131 21.5 219.5t71.5 141.5t134 74.5t211 21.5h791q78 0 136 -21.5t99 -53t65.5 -67.5t37.5 -65l-177 -180q-18 41 -59 74.5t-121 33.5h-770q-92 0 -129 -38.5t-37 -139.5v-497q0 -45 6.5 -78t23.5 -55.5t50 -34t86 -11.5h780q82 0 121 34t58 75l176 -178 q-12 -29 -37 -65t-66 -67.5t-99 -53t-136 -21.5h-799q-127 0 -211 22.5t-134 75t-71.5 140.5t-21.5 219z" />
<glyph unicode="D" horiz-adv-x="1865" d="M121 0v1409h1186q129 0 214 -22.5t135 -77t71.5 -141.5t21.5 -216v-495q0 -129 -21.5 -217t-71.5 -141.5t-135 -76t-214 -22.5h-1186zM399 276h908q94 0 130 37t36 142v495q0 104 -37 142t-129 38h-908v-854z" />
<glyph unicode="E" horiz-adv-x="1570" d="M123 0v1409h1354v-279h-1078v-311h1047v-227h-1047v-316h1078v-276h-1354z" />
<glyph unicode="F" horiz-adv-x="1521" d="M123 0v1409h1323v-279h-1047v-323h1024v-246h-1024v-561h-276z" />
<glyph unicode="G" horiz-adv-x="1783" d="M121 457v495q0 127 19.5 214t68.5 141.5t134 78t216 23.5h715q78 0 135 -21.5t98 -53t65.5 -67.5t37.5 -65l-174 -180q-20 41 -59.5 74.5t-121.5 33.5h-694q-96 0 -131 -36.5t-35 -141.5v-454q0 -74 7.5 -117t27 -66.5t51 -31t80.5 -7.5h641q117 0 162 34t45 100v180 h-528v229h788v-819h-233l-9 172q-6 -31 -27.5 -61.5t-55 -55t-80.5 -40t-107 -15.5h-598q-131 0 -216 21.5t-134 75t-68.5 140.5t-19.5 220z" />
<glyph unicode="H" horiz-adv-x="1632" d="M123 0v1409h272v-573h840v573h272v-1409h-272v582h-840v-582h-272z" />
<glyph unicode="I" d="M131 0v1409h277v-1409h-277z" />
<glyph unicode="J" horiz-adv-x="1388" d="M43 0v276h803q86 0 118.5 38t32.5 132v963h275v-963q0 -127 -20.5 -211.5t-69.5 -137t-131 -75t-205 -22.5h-803z" />
<glyph unicode="K" horiz-adv-x="1800" d="M123 0v1409h278v-889l979 889h400l-764 -684l760 -725h-396l-555 553l-424 -381v-172h-278z" />
<glyph unicode="L" horiz-adv-x="1499" d="M123 0v1409h276v-1130h1061v-279h-1337z" />
<glyph unicode="M" horiz-adv-x="1894" d="M121 0v1409h303l526 -1126l529 1126h297v-1409h-254v922l-447 -922h-256l-444 922v-922h-254z" />
<glyph unicode="N" horiz-adv-x="1767" d="M121 0v1409h297l966 -1020v1020h267v-1409h-273l-993 1038v-1038h-264z" />
<glyph unicode="O" horiz-adv-x="1865" d="M121 457v495q0 129 20.5 217t71.5 141.5t135 76t213 22.5h744q125 0 209.5 -22.5t136 -76t73 -141.5t21.5 -217v-495q0 -129 -21.5 -217t-73 -141.5t-136 -76t-209.5 -22.5h-744q-129 0 -213 22.5t-135 76t-71.5 141.5t-20.5 217zM395 455q0 -53 8.5 -87t28 -54.5t51 -29 t78.5 -8.5h742q94 0 129.5 37t35.5 142v495q0 104 -36.5 142t-128.5 38h-742q-92 0 -129 -37.5t-37 -142.5v-495z" />
<glyph unicode="P" horiz-adv-x="1677" d="M123 0v1409h1057q121 0 202.5 -21.5t131 -70.5t71 -131t21.5 -205v-127q0 -109 -21.5 -184.5t-71 -122.5t-131.5 -68.5t-202 -21.5h-781v-457h-276zM399 709h781q84 0 117.5 33.5t33.5 109.5v129q0 84 -33.5 116.5t-117.5 32.5h-781v-421z" />
<glyph unicode="Q" horiz-adv-x="1865" d="M121 457v495q0 125 22.5 212t74.5 141.5t136 79t207 24.5h744q123 0 206.5 -24.5t136 -79t75 -141.5t22.5 -212v-495q0 -119 -19.5 -203t-65.5 -137.5t-122 -80t-186 -30.5l180 -203l-219 -122l-273 319h-479q-123 0 -207 24.5t-136 79t-74.5 141.5t-22.5 212zM395 455 q0 -53 8.5 -87t28 -54.5t51 -29t78.5 -8.5h742q94 0 129.5 37t35.5 142v495q0 104 -36.5 142t-128.5 38h-742q-92 0 -129 -37.5t-37 -142.5v-495z" />
<glyph unicode="R" horiz-adv-x="1765" d="M121 0v1409h1151q113 0 189.5 -23.5t123.5 -74.5t68.5 -135t21.5 -203v-86q0 -129 -25.5 -211t-83 -129t-147.5 -64.5t-221 -17.5l522 -465h-389l-487 461h-445v-461h-278zM399 692h865q74 0 105.5 37t31.5 129v68q0 102 -23.5 152t-113.5 50h-865v-436z" />
<glyph unicode="S" horiz-adv-x="1658" d="M86 967v47q0 104 22.5 180t76 123t140.5 69.5t216 22.5h987q-8 -72 -16.5 -140.5t-18.5 -140.5h-952q-102 0 -138 -34.5t-36 -118.5t35.5 -120t138.5 -36h563q131 0 221 -21.5t145.5 -66.5t80 -113.5t24.5 -160.5v-49q0 -113 -24.5 -191t-79 -126t-142.5 -69.5 t-213 -21.5h-995q4 70 9 138.5t9 137.5h959q55 0 93 7.5t59.5 26t30.5 48t9 74.5q0 88 -39 122t-147 34h-572q-127 0 -211.5 22.5t-137 69.5t-75 118.5t-22.5 168.5z" />
<glyph unicode="T" horiz-adv-x="1394" d="M45 1130v279h1305v-279h-514v-1130h-277v1130h-514z" />
<glyph unicode="U" horiz-adv-x="1777" d="M121 446v963h274v-963q0 -90 34 -130t116 -40h688q82 0 115.5 40t33.5 130v963h277v-963q0 -121 -22.5 -204.5t-73 -138t-132 -79t-198.5 -24.5h-688q-117 0 -198 24.5t-131 79t-72.5 138.5t-22.5 204z" />
<glyph unicode="V" horiz-adv-x="1878" d="M23 1409h329l586 -1108l586 1108h331l-774 -1409h-288z" />
<glyph unicode="W" horiz-adv-x="2453" d="M23 1409h315l360 -1081l387 1081h279l379 -1083l371 1083h315l-528 -1409h-299l-377 1049l-387 -1049h-297z" />
<glyph unicode="X" horiz-adv-x="1867" d="M23 0l727 727l-715 682h385l512 -510l504 510h383l-713 -698l737 -711h-362l-557 547l-535 -547h-366z" />
<glyph unicode="Y" horiz-adv-x="1656" d="M18 1409h320l491 -659l488 659h321l-680 -891v-518h-276v518z" />
<glyph unicode="Z" horiz-adv-x="1609" d="M88 0v252l997 895h-985v262h1422v-244l-996 -903h998v-262h-1436z" />
<glyph unicode="[" horiz-adv-x="649" d="M188 -158v1714h344v-157h-190v-1403h190v-154h-344z" />
<glyph unicode="\" horiz-adv-x="1091" d="M14 1409h166l996 -1567h-168z" />
<glyph unicode="]" horiz-adv-x="647" d="M121 -4h184v1403h-184v157h342v-1714h-342v154z" />
<glyph unicode="^" horiz-adv-x="1099" d="M121 715l328 694h200l330 -694h-176l-250 532l-252 -532h-180z" />
<glyph unicode="_" horiz-adv-x="1300" d="M14 -98h1274v-140h-1274v140z" />
<glyph unicode="`" horiz-adv-x="892" d="M135 1376v174l621 -202v-127z" />
<glyph unicode="a" horiz-adv-x="1415" d="M94 270v121q0 141 83 201.5t269 60.5h381q82 0 125 -13t74 -30v129q0 78 -47 102.5t-160 24.5h-639l27 240h647q135 0 221 -27.5t134 -75t66.5 -111t18.5 -134.5v-758q-59 0 -114.5 38t-71.5 136q-25 -76 -94.5 -125t-192.5 -49h-370q-195 0 -276 65.5t-81 204.5z M369 360q0 -70 28.5 -96t91.5 -26h334q74 0 132.5 24.5t70.5 93.5v97q-35 14 -80 22t-121 8h-333q-66 0 -94.5 -25.5t-28.5 -97.5z" />
<glyph unicode="b" horiz-adv-x="1425" d="M123 0v1446l272 92v-592q45 88 105.5 124t158.5 36h220q121 0 202.5 -26.5t132 -82t72 -138.5t21.5 -195v-222q0 -113 -21.5 -195.5t-72 -138t-132.5 -82t-202 -26.5h-242q-143 0 -222 43t-106 133q-6 -47 -23.5 -80t-43 -54.5t-56 -31.5t-63.5 -10zM395 373 q12 -57 51 -96t111 -39h322q43 0 72.5 9t47 33.5t25.5 65.5t8 105v204q0 111 -29.5 162t-123.5 51h-322q-72 0 -109.5 -24.5t-52.5 -81.5v-389z" />
<glyph unicode="c" horiz-adv-x="1378" d="M121 389v328q0 207 111.5 298t312.5 91h454q68 0 118 -18.5t85 -45t55.5 -58.5t30.5 -56l-149 -156q-18 39 -51 67.5t-103 28.5h-440q-72 0 -112 -36.5t-40 -114.5v-328q0 -78 40 -114.5t112 -36.5h450q70 0 104 28.5t50 65.5l151 -154q-10 -25 -31.5 -56.5t-56 -58 t-85 -45t-117.5 -18.5h-465q-201 0 -312.5 91t-111.5 298z" />
<glyph unicode="d" horiz-adv-x="1425" d="M121 442v222q0 113 21.5 195.5t70.5 138t131 82t203 26.5h217q98 0 158.5 -36t105.5 -124v500l275 92v-1538q-33 0 -65 10t-57.5 31.5t-43 54.5t-21.5 80q-29 -90 -106.5 -133t-223.5 -43h-239q-121 0 -203 26.5t-131 82t-70.5 138.5t-21.5 195zM393 451q0 -127 35 -170 t119 -43h321q72 0 111 38.5t49 96.5v389q-14 57 -51 81.5t-109 24.5h-321q-94 0 -124 -51t-30 -162v-204z" />
<glyph unicode="e" horiz-adv-x="1452" d="M121 389v328q0 207 111.5 298t312.5 91h366q201 0 313.5 -91t112.5 -298v-260h-944v-68q0 -86 40 -118.5t112 -32.5h770l-35 -238h-735q-201 0 -312.5 91t-111.5 298zM393 629h670v73q0 90 -35 128t-117 38h-366q-82 0 -117 -36.5t-35 -114.5v-88z" />
<glyph unicode="f" horiz-adv-x="659" d="M20 903l33 203h94v31q0 117 35 194.5t95.5 125.5t139.5 68.5t167 24.5l32 -211q-51 -4 -89 -16t-62.5 -35.5t-36.5 -62.5t-12 -99v-20h231l-35 -203h-196v-903h-269v903h-127z" />
<glyph unicode="g" horiz-adv-x="1441" d="M102 557v107q0 113 21.5 195.5t71 138t130.5 82t201 26.5h238q33 0 75 -6t84 -23.5t77.5 -49.5t54.5 -83v162h264v-924q0 -100 -20.5 -191t-78 -160t-160 -109.5t-265.5 -40.5q-74 0 -148 11t-143 34l33 217q66 -20 123 -28.5t124 -8.5q76 0 126.5 19.5t80 55t41.5 87 t12 114.5v119q-27 -53 -56.5 -85t-67 -49t-87 -23.5t-116.5 -6.5h-191q-121 0 -201.5 24.5t-130 76t-71 131.5t-21.5 188zM375 573q0 -72 9 -114.5t28.5 -66t51.5 -31t79 -7.5h329q78 0 117 20.5t55 84.5v303q-16 57 -52 80.5t-101 23.5h-346q-49 0 -81 -10t-52.5 -34.5 t-28.5 -66.5t-8 -108v-74z" />
<glyph unicode="h" horiz-adv-x="1435" d="M123 0v1446l272 92v-592q45 88 105.5 124t158.5 36h230q121 0 203 -26.5t131 -82t70.5 -138.5t21.5 -195v-664h-275v698q0 86 -32.5 128t-118.5 42h-357q-59 0 -89.5 -25.5t-47.5 -80.5v-762h-272z" />
<glyph unicode="i" d="M131 0v1106h275v-1106h-275zM131 1202v293h277v-293h-277z" />
<glyph unicode="j" horiz-adv-x="778" d="M-20 -274l34 260q51 -20 92 -26.5t91 -6.5q55 0 91 19.5t56.5 54t28.5 83t8 105.5v891h272v-891q0 -109 -16 -205t-63.5 -169.5t-132.5 -116.5t-220 -43q-63 0 -124.5 11t-116.5 34zM379 1202v293h276v-293h-276z" />
<glyph unicode="k" horiz-adv-x="1388" d="M123 0v1446l272 92v-1038l633 606h338l-582 -549l578 -557h-352l-394 393l-221 -203v-190h-272z" />
<glyph unicode="l" horiz-adv-x="520" d="M123 0v1446l272 92v-1538h-272z" />
<glyph unicode="m" horiz-adv-x="2025" d="M123 0v1106h256v-160q35 72 98.5 116t173.5 44h86q158 0 247 -46t124 -163q31 111 106.5 160t204.5 49h97q119 0 194.5 -26.5t119.5 -82t61.5 -138.5t17.5 -195v-664h-269v659q0 45 -5 84t-20.5 67t-45 43t-78.5 15h-199q-86 0 -120.5 -32.5t-34.5 -102.5v-733h-265v733 q0 70 -34.5 102.5t-116.5 32.5h-195q-59 0 -91 -26.5t-46 -79.5v-762h-266z" />
<glyph unicode="n" horiz-adv-x="1435" d="M123 0v1106h262v-160q45 88 104.5 124t157.5 36h242q121 0 203 -26.5t131 -82t70.5 -138.5t21.5 -195v-664h-275v698q0 86 -32.5 128t-118.5 42h-357q-59 0 -89.5 -25.5t-47.5 -80.5v-762h-272z" />
<glyph unicode="o" horiz-adv-x="1458" d="M121 389v328q0 207 100.5 298t323.5 91h366q225 0 325.5 -91t100.5 -298v-328q0 -207 -100 -298t-326 -91h-366q-223 0 -323.5 91t-100.5 298zM393 389q0 -86 37 -118.5t115 -32.5h366q78 0 115 32.5t37 118.5v328q0 86 -37 118.5t-115 32.5h-366q-78 0 -115 -32.5 t-37 -118.5v-328z" />
<glyph unicode="p" horiz-adv-x="1460" d="M123 -317v1423h262v-160q45 88 105.5 124t158.5 36h264q119 0 201 -26.5t132 -82t71.5 -138.5t21.5 -195v-222q0 -113 -21.5 -195.5t-71.5 -138t-132 -82t-201 -26.5h-254q-98 0 -158.5 36t-105.5 124v-477h-272zM395 344q14 -57 52 -81.5t110 -24.5h356q94 0 123 51 t29 162v204q0 111 -28.5 162t-123.5 51h-356q-72 0 -109.5 -24.5t-52.5 -81.5v-418z" />
<glyph unicode="q" horiz-adv-x="1456" d="M121 442v222q0 113 21.5 195.5t70.5 138t131 82t203 26.5h264q98 0 158.5 -36t105.5 -124v160h262v-1423h-274v477q-45 -88 -105.5 -124t-158.5 -36h-252q-121 0 -203 26.5t-131 82t-70.5 138.5t-21.5 195zM393 451q0 -111 30 -162t124 -51h356q72 0 109 24.5t51 81.5 v418q-14 57 -51 81.5t-109 24.5h-356q-94 0 -124 -51t-30 -162v-204z" />
<glyph unicode="r" horiz-adv-x="837" d="M121 0v1106h264v-152q37 84 108.5 122t163.5 38q45 0 85 -9t71 -24l-39 -245q-29 25 -65.5 34t-102.5 9q-94 0 -147 -39t-64 -107v-733h-274z" />
<glyph unicode="s" horiz-adv-x="1363" d="M82 0q10 59 19.5 118.5t19.5 119.5h766q57 0 84.5 22.5t27.5 93.5q0 72 -27.5 94.5t-84.5 22.5h-406q-190 0 -281 57.5t-91 198.5v119q0 76 23.5 127t70.5 79.5t120.5 41t172.5 12.5h753l-39 -240h-702q-57 0 -85 -22.5t-28 -91.5q0 -68 28 -91.5t85 -23.5h405 q188 0 280.5 -58.5t92.5 -197.5v-123q0 -78 -23.5 -127t-70.5 -78.5t-121 -41t-172 -11.5h-817z" />
<glyph unicode="t" horiz-adv-x="768" d="M20 903l33 203h92v246l275 90v-336h229l-33 -203h-196v-391q0 -147 45 -220t149 -73q84 0 123 29l-41 -236q-20 -12 -64 -22t-97 -10q-209 0 -299.5 134t-90.5 398v391h-125z" />
<glyph unicode="u" horiz-adv-x="1400" d="M121 442v664h272v-698q0 -86 34 -128t118 -42h323q59 0 93 32.5t45 79.5v756h274v-1106q-33 0 -64.5 10t-57 31.5t-43 54.5t-21.5 80q-29 -90 -106 -133t-220 -43h-223q-121 0 -202 26.5t-130 82t-70.5 138.5t-21.5 195z" />
<glyph unicode="v" horiz-adv-x="1400" d="M23 1106h294l385 -858l383 858h293l-534 -1106h-289z" />
<glyph unicode="w" horiz-adv-x="1945" d="M23 1106h305l250 -858l256 858h280l260 -856l250 856h299l-375 -1106h-323l-252 827l-250 -827h-330z" />
<glyph unicode="x" horiz-adv-x="1505" d="M23 0l567 567l-565 539h348l372 -379l363 379h352l-561 -549l584 -557h-336l-402 408l-385 -408h-337z" />
<glyph unicode="y" horiz-adv-x="1380" d="M23 1106h303l383 -819l358 819h291l-514 -1077q-41 -86 -89 -151.5t-106.5 -108.5t-130.5 -65.5t-164 -22.5q-63 0 -137 7t-143 40l127 258q41 -20 84 -29.5t100 -9.5q63 0 109.5 28.5t70.5 75.5z" />
<glyph unicode="z" horiz-adv-x="1245" d="M88 0v217l670 662h-670v227h1059v-207l-664 -674h676v-225h-1071z" />
<glyph unicode="{" horiz-adv-x="673" d="M121 625v137q59 2 94 15.5t35 49.5v478q0 133 52 192t173 59h80v-157q-90 0 -119.5 -20.5t-29.5 -86.5v-456q0 -49 -16.5 -87t-80.5 -55q63 -16 80 -53t17 -90v-447q0 -33 6 -53t22.5 -32.5t45 -16.5t75.5 -4v-156h-80q-123 0 -174 59.5t-51 190.5v465q0 41 -35 54.5 t-94 13.5z" />
<glyph unicode="|" horiz-adv-x="550" d="M205 -158v1714h143v-1714h-143z" />
<glyph unicode="}" horiz-adv-x="673" d="M121 -2q47 0 75.5 4t45 16.5t22.5 33t6 52.5v447q0 53 16.5 90t80.5 53q-63 16 -80 54t-17 88v456q0 66 -29.5 86.5t-119.5 20.5v157h80q121 0 173 -59t52 -192v-478q0 -37 35 -50t94 -15v-137q-59 0 -94 -13.5t-35 -54.5v-465q0 -131 -51 -190.5t-174 -59.5h-80v156z " />
<glyph unicode="~" horiz-adv-x="1216" d="M121 618v142q47 41 110.5 65.5t171.5 24.5q57 0 111.5 -13.5t109 -28.5t108.5 -27.5t110 -12.5q51 0 91 7t70.5 19.5t53 28t39.5 29.5v-141q-47 -41 -112.5 -65.5t-172.5 -24.5q-57 0 -109.5 13t-102.5 28.5t-99 29t-99 13.5q-119 0 -182 -28t-98 -59z" />
<glyph unicode="&#xa1;" horiz-adv-x="567" d="M143 0zM143 0v412l62 538h155l64 -538v-412h-281zM155 1112v297h256v-297h-256z" />
<glyph unicode="&#xa2;" horiz-adv-x="1331" d="M121 545v327q0 207 111.5 298.5t312.5 91.5h108v147h160v-147h121q66 0 115 -18.5t83.5 -45.5t56 -57.5t32.5 -55.5l-152 -155q-16 37 -50 65.5t-101 28.5h-373q-72 0 -112 -36t-40 -116v-327q0 -147 152 -148h383q61 0 99 30t54 60l150 -153q-10 -25 -30.5 -55.5 t-55.5 -58t-84 -46t-117 -18.5h-131v-156h-160v156h-108q-201 0 -312.5 91t-111.5 298z" />
<glyph unicode="&#xa3;" horiz-adv-x="1417" d="M76 0v276h145v330h-135v219h135v240q0 344 412 344h690v-279h-690q-172 0 -172 -141v-164h524v-219h-524v-330h862v-276h-1247z" />
<glyph unicode="&#xa4;" horiz-adv-x="958" d="M121 430l106 111q-27 33 -43 72.5t-16 86.5t16.5 87t42.5 73l-106 111l72 76l114 -117q39 27 84 40t88 13t88 -13.5t82 -39.5l117 117l74 -76l-109 -109q27 -33 44.5 -73.5t17.5 -88.5q0 -47 -16.5 -88t-45.5 -71l109 -111l-74 -76l-115 117q-39 -27 -84 -40t-88 -13 t-88 13t-84 40l-114 -117zM256 700q0 -47 19.5 -84.5t52 -64.5t71.5 -42t80 -15t81 15t72 42t51 64.5t19 84.5q0 45 -19 83t-51 66t-72 42t-81 14t-80 -14t-71.5 -42t-52 -66t-19.5 -83z" />
<glyph unicode="&#xa5;" horiz-adv-x="1495" d="M37 1409h325q96 -117 191.5 -231.5t191.5 -231.5l385 463h326l-563 -649v-66h453v-143h-453v-240h453v-143h-453v-168h-293v168h-453v143h453v240h-453v143h453v66z" />
<glyph unicode="&#xa6;" horiz-adv-x="550" d="M205 -158v758h143v-758h-143zM205 868v688h143v-688h-143z" />
<glyph unicode="&#xa7;" horiz-adv-x="1275" d="M119 522q0 92 40 165t117 106q-150 51 -149 272q0 170 91 257t276 87h614v-221h-614q-96 0 -135.5 -33t-39.5 -106q0 -49 15.5 -78t45.5 -45.5t73 -21.5t98 -5h256q176 0 262 -78t86 -256q0 -94 -39 -165.5t-119 -106.5q152 -49 152 -273q0 -166 -91 -252.5t-278 -86.5 h-620v221h583q113 0 163 27.5t50 111.5q0 47 -15 75.5t-45 45t-73 21.5t-98 5h-256q-176 0 -263 78t-87 256zM303 545q0 -72 41 -110t115 -38h325q80 0 133.5 35t53.5 113q0 80 -45 112.5t-129 32.5h-303q-82 0 -136.5 -34.5t-54.5 -110.5z" />
<glyph unicode="&#xa8;" horiz-adv-x="1032" d="M135 1276v291h225v-291h-225zM670 1276v291h227v-291h-227z" />
<glyph unicode="&#xaa;" horiz-adv-x="905" d="M111 764v67q0 76 49 110t147 34h199q35 0 56.5 -5t37.5 -14v56q0 29 -17.5 39t-58.5 10h-366l18 162h359q76 0 124 -16.5t75.5 -42t36.5 -60.5t9 -72v-418q-37 0 -72.5 20.5t-52.5 67.5q-12 -41 -50 -64.5t-101 -23.5h-193q-111 0 -155.5 36t-44.5 114zM295 825 q0 -35 15.5 -42t47.5 -7h156q37 0 59.5 7.5t26.5 37.5v45q-18 4 -37.5 7.5t-48.5 3.5h-156q-33 0 -48 -9.5t-15 -42.5z" />
<glyph unicode="&#xab;" horiz-adv-x="1175" d="M57 297zM57 696l375 398l96 -97l-286 -301l286 -305l-96 -94zM645 696l375 398l96 -97l-286 -301l286 -305l-96 -94z" />
<glyph unicode="&#xac;" horiz-adv-x="1220" d="M121 659v148h981v-584h-146v436h-835z" />
<glyph unicode="&#xad;" horiz-adv-x="663" d="M59 510v178h545v-178h-545z" />
<glyph unicode="&#xaf;" horiz-adv-x="892" d="M135 1323v127h621v-127h-621z" />
<glyph unicode="&#xb0;" horiz-adv-x="806" d="M121 1141q0 287 282 286q285 0 285 -286q0 -285 -285 -285q-283 0 -282 285zM225 1141q0 -176 178 -176q177 0 177 174q0 180 -177 180q-178 0 -178 -178z" />
<glyph unicode="&#xb1;" horiz-adv-x="1220" d="M119 24v146h981v-146h-981zM119 25zM119 657v146h418v418h145v-418h418v-146h-418v-417h-145v417h-418z" />
<glyph unicode="&#xb2;" horiz-adv-x="876" d="M74 725v219q0 104 53 151t186 47h250q35 0 47.5 12.5t12.5 45.5t-12.5 45t-49.5 12h-442v172h442q129 0 182.5 -48t53.5 -153v-45q0 -90 -48.5 -132t-175.5 -42h-260q-63 0 -63 -53v-61h538v-170h-714zM74 725z" />
<glyph unicode="&#xb3;" horiz-adv-x="847" d="M74 725v170h469q27 0 41 12t14 47q0 33 -15.5 45t-39.5 12h-269v103l177 143h-353v172h631v-158l-178 -133q41 0 82 -6t72.5 -23.5t52 -51t20.5 -91.5v-35q0 -47 -10 -86t-36.5 -65.5t-73 -40.5t-117.5 -14h-467zM74 725z" />
<glyph unicode="&#xb4;" horiz-adv-x="892" d="M135 1221v127l621 202v-174z" />
<glyph unicode="&#xb5;" horiz-adv-x="1400" d="M119 0zM119 -319v1425h274v-700q0 -78 33 -123t119 -45h323q59 0 93 30.5t43 81.5v756h274v-1106q-78 0 -127 48t-57 126q-29 -88 -107 -131t-221 -43h-162q-78 0 -130 19.5t-81 66.5v-405h-274z" />
<glyph unicode="&#xb6;" horiz-adv-x="1226" d="M53 1116q0 154 73 223.5t212 69.5h768v-1728h-191v1435h-325v-1435h-193v1435h-344z" />
<glyph unicode="&#xb7;" horiz-adv-x="493" d="M121 573v297h254v-297h-254z" />
<glyph unicode="&#xb8;" horiz-adv-x="503" d="M129 -63h281v-232l-174 -242l-99 37l84 181h-92v256z" />
<glyph unicode="&#xb9;" horiz-adv-x="454" d="M41 725zM41 1325l137 104h187v-704h-170v522l-68 -47z" />
<glyph unicode="&#xba;" horiz-adv-x="927" d="M123 829v181q0 113 59.5 163t177.5 50h205q121 0 180.5 -50.5t59.5 -162.5v-181q0 -117 -59.5 -166t-180.5 -49h-205q-119 0 -178 49.5t-59 165.5zM309 829q0 -53 51 -53h205q53 0 53 53v181q0 51 -53 51h-205q-51 0 -51 -51v-181z" />
<glyph unicode="&#xbb;" horiz-adv-x="1175" d="M59 297zM59 391l287 305l-287 301l97 97l374 -398l-374 -399zM647 391l287 305l-287 301l97 97l374 -398l-374 -399z" />
<glyph unicode="&#xbc;" horiz-adv-x="1642" d="M121 0l1020 1409h195l-1024 -1409h-191zM121 0zM121 1325l137 104h187v-704h-170v522l-68 -47zM823 92v123l525 469h125v-455h55v-137h-55v-112h-164v112h-486zM1057 229h252v228z" />
<glyph unicode="&#xbd;" horiz-adv-x="1777" d="M121 0l1020 1409h195l-1024 -1409h-191zM121 0zM121 1325l137 104h187v-704h-170v522l-68 -47zM940 -20v219q0 104 53 151t186 47h250q35 0 47.5 12.5t12.5 45.5t-12.5 45t-49.5 12h-442v172h442q129 0 182.5 -48t53.5 -153v-45q0 -90 -48.5 -132t-175.5 -42h-260 q-63 0 -63 -53v-61h538v-170h-714z" />
<glyph unicode="&#xbe;" horiz-adv-x="1871" d="M113 0zM113 725v170h469q27 0 41 12t14 47q0 33 -15.5 45t-39.5 12h-269v103l177 143h-353v172h631v-158l-178 -133q41 0 82 -6t72.5 -23.5t52 -51t20.5 -91.5v-35q0 -47 -10 -86t-36.5 -65.5t-73 -40.5t-117.5 -14h-467zM370 0l1020 1409h195l-1024 -1409h-191zM1052 92 v123l525 469h125v-455h55v-137h-55v-112h-164v112h-486zM1286 229h252v228z" />
<glyph unicode="&#xbf;" horiz-adv-x="1290" d="M57 0zM57 365v59q0 80 19.5 145.5t67.5 113.5t128 73.5t201 25.5h113q72 0 99.5 17.5t27.5 89.5v61h251v-43q0 -98 -22.5 -163.5t-69.5 -103.5t-117.5 -54.5t-166.5 -16.5h-86q-82 0 -122 -29.5t-40 -113.5t39 -114.5t123 -30.5h721v-281h-721q-121 0 -206 19.5 t-138.5 62.5t-77 112.5t-23.5 170.5zM711 1112v297h256v-297h-256z" />
<glyph unicode="&#xc0;" horiz-adv-x="1878" d="M23 0l772 1409h288l772 -1409h-315l-176 328h-850l-176 -328h-315zM23 0zM569 1679v174l621 -202v-127zM621 549h639l-320 584z" />
<glyph unicode="&#xc1;" horiz-adv-x="1878" d="M23 0l772 1409h288l772 -1409h-315l-176 328h-850l-176 -328h-315zM23 0zM621 549h639l-320 584zM690 1524v127l621 202v-174z" />
<glyph unicode="&#xc2;" horiz-adv-x="1878" d="M23 0l772 1409h288l772 -1409h-315l-176 328h-850l-176 -328h-315zM23 0zM608 1524l262 381h140l262 -381h-158l-172 286l-176 -286h-158zM621 549h639l-320 584z" />
<glyph unicode="&#xc3;" horiz-adv-x="1878" d="M23 0l772 1409h288l772 -1409h-315l-176 328h-850l-176 -328h-315zM23 0zM621 549h639l-320 584zM631 1591v127q29 35 70 55.5t110 20.5q37 0 71 -10.5t67.5 -23.5t67.5 -23.5t69 -10.5q70 0 106.5 22.5t59.5 47.5v-127q-31 -35 -73 -55.5t-108 -20.5q-37 0 -69.5 11.5 t-65 23.5t-63.5 23.5t-62 11.5q-78 0 -117.5 -23.5t-62.5 -48.5z" />
<glyph unicode="&#xc4;" horiz-adv-x="1878" d="M23 0l772 1409h288l772 -1409h-315l-176 328h-850l-176 -328h-315zM23 0zM559 1579v291h225v-291h-225zM621 549h639l-320 584zM1094 1579v291h227v-291h-227z" />
<glyph unicode="&#xc5;" horiz-adv-x="1878" d="M23 0l772 1409h288l772 -1409h-315l-176 328h-850l-176 -328h-315zM23 0zM621 549h639l-320 584zM676 1616v106q0 88 53.5 135.5t161.5 47.5h96q111 0 164.5 -47.5t53.5 -135.5v-106q0 -88 -53.5 -135.5t-164.5 -47.5h-96q-109 0 -162 47.5t-53 135.5zM795 1620 q0 -74 92 -74h107q92 0 92 74v98q0 74 -92 74h-107q-92 0 -92 -74v-98z" />
<glyph unicode="&#xc6;" horiz-adv-x="2732" d="M-6 0l1030 1409h1614v-279h-987v-309h954v-233h-954v-312h987v-276h-1266v324h-815l-229 -324h-334zM715 547h657v586h-248z" />
<glyph unicode="&#xc7;" horiz-adv-x="1781" d="M121 0zM121 457v495q0 131 21.5 219.5t71.5 141.5t134 74.5t211 21.5h791q78 0 136 -21.5t99 -53t65.5 -67.5t37.5 -65l-177 -180q-18 41 -59 74.5t-121 33.5h-770q-92 0 -129 -38.5t-37 -139.5v-497q0 -45 6.5 -78t23.5 -55.5t50 -34t86 -11.5h780q82 0 121 34t58 75 l176 -178q-12 -29 -37 -65t-66 -67.5t-99 -53t-136 -21.5h-799q-127 0 -211 22.5t-134 75t-71.5 140.5t-21.5 219zM770 -63h281v-232l-174 -242l-99 37l84 181h-92v256z" />
<glyph unicode="&#xc8;" horiz-adv-x="1570" d="M123 0v1409h1354v-279h-1078v-311h1047v-227h-1047v-316h1078v-276h-1354zM123 0zM434 1679v174l621 -202v-127z" />
<glyph unicode="&#xc9;" horiz-adv-x="1570" d="M123 0v1409h1354v-279h-1078v-311h1047v-227h-1047v-316h1078v-276h-1354zM123 0zM557 1524v127l621 202v-174z" />
<glyph unicode="&#xca;" horiz-adv-x="1570" d="M123 0v1409h1354v-279h-1078v-311h1047v-227h-1047v-316h1078v-276h-1354zM123 0zM473 1524l262 381h140l262 -381h-158l-172 286l-176 -286h-158z" />
<glyph unicode="&#xcb;" horiz-adv-x="1570" d="M123 0v1409h1354v-279h-1078v-311h1047v-227h-1047v-316h1078v-276h-1354zM123 0zM424 1579v291h225v-291h-225zM959 1579v291h227v-291h-227z" />
<glyph unicode="&#xcc;" d="M-101 1679v174l621 -202v-127zM0 0zM131 0v1409h277v-1409h-277z" />
<glyph unicode="&#xcd;" d="M22 1524v127l621 202v-174zM23 0zM131 0v1409h277v-1409h-277z" />
<glyph unicode="&#xce;" d="M-62 1524l262 381h140l262 -381h-158l-172 286l-176 -286h-158zM0 0zM131 0v1409h277v-1409h-277z" />
<glyph unicode="&#xcf;" d="M-111 1579v291h225v-291h-225zM0 0zM131 0v1409h277v-1409h-277zM424 1579v291h227v-291h-227z" />
<glyph unicode="&#xd0;" horiz-adv-x="1863" d="M12 600v209h105v600h1186q129 0 214 -22.5t135 -77t71.5 -141.5t21.5 -216v-495q0 -129 -21.5 -217t-71.5 -141.5t-135 -76t-214 -22.5h-1186v600h-105zM395 276h908q94 0 129.5 37t35.5 142v454q0 57 -6 99.5t-23.5 69t-50 38.5t-85.5 12h-908v-319h547v-209h-547v-324z " />
<glyph unicode="&#xd1;" horiz-adv-x="1767" d="M121 0v1409h297l966 -1020v1020h267v-1409h-273l-993 1038v-1038h-264zM121 0zM594 1591v127q29 35 70 55.5t110 20.5q37 0 71 -10.5t67.5 -23.5t67.5 -23.5t69 -10.5q70 0 106.5 22.5t59.5 47.5v-127q-31 -35 -73 -55.5t-108 -20.5q-37 0 -69.5 11.5t-65 23.5 t-63.5 23.5t-62 11.5q-78 0 -117.5 -23.5t-62.5 -48.5z" />
<glyph unicode="&#xd2;" horiz-adv-x="1865" d="M121 0zM121 457v495q0 129 20.5 217t71.5 141.5t135 76t213 22.5h744q125 0 209.5 -22.5t136 -76t73 -141.5t21.5 -217v-495q0 -129 -21.5 -217t-73 -141.5t-136 -76t-209.5 -22.5h-744q-129 0 -213 22.5t-135 76t-71.5 141.5t-20.5 217zM395 455q0 -53 8.5 -87t28 -54.5 t51 -29t78.5 -8.5h742q94 0 129.5 37t35.5 142v495q0 104 -36.5 142t-128.5 38h-742q-92 0 -129 -37.5t-37 -142.5v-495zM561 1679v174l621 -202v-127z" />
<glyph unicode="&#xd3;" horiz-adv-x="1865" d="M121 0zM121 457v495q0 129 20.5 217t71.5 141.5t135 76t213 22.5h744q125 0 209.5 -22.5t136 -76t73 -141.5t21.5 -217v-495q0 -129 -21.5 -217t-73 -141.5t-136 -76t-209.5 -22.5h-744q-129 0 -213 22.5t-135 76t-71.5 141.5t-20.5 217zM395 455q0 -53 8.5 -87t28 -54.5 t51 -29t78.5 -8.5h742q94 0 129.5 37t35.5 142v495q0 104 -36.5 142t-128.5 38h-742q-92 0 -129 -37.5t-37 -142.5v-495zM684 1524v127l621 202v-174z" />
<glyph unicode="&#xd4;" horiz-adv-x="1865" d="M121 0zM121 457v495q0 129 20.5 217t71.5 141.5t135 76t213 22.5h744q125 0 209.5 -22.5t136 -76t73 -141.5t21.5 -217v-495q0 -129 -21.5 -217t-73 -141.5t-136 -76t-209.5 -22.5h-744q-129 0 -213 22.5t-135 76t-71.5 141.5t-20.5 217zM395 455q0 -53 8.5 -87t28 -54.5 t51 -29t78.5 -8.5h742q94 0 129.5 37t35.5 142v495q0 104 -36.5 142t-128.5 38h-742q-92 0 -129 -37.5t-37 -142.5v-495zM600 1524l262 381h140l262 -381h-158l-172 286l-176 -286h-158z" />
<glyph unicode="&#xd5;" horiz-adv-x="1865" d="M121 0zM121 457v495q0 129 20.5 217t71.5 141.5t135 76t213 22.5h744q125 0 209.5 -22.5t136 -76t73 -141.5t21.5 -217v-495q0 -129 -21.5 -217t-73 -141.5t-136 -76t-209.5 -22.5h-744q-129 0 -213 22.5t-135 76t-71.5 141.5t-20.5 217zM395 455q0 -53 8.5 -87t28 -54.5 t51 -29t78.5 -8.5h742q94 0 129.5 37t35.5 142v495q0 104 -36.5 142t-128.5 38h-742q-92 0 -129 -37.5t-37 -142.5v-495zM622 1591v127q29 35 70 55.5t110 20.5q37 0 71 -10.5t67.5 -23.5t67.5 -23.5t69 -10.5q70 0 106.5 22.5t59.5 47.5v-127q-31 -35 -73 -55.5t-108 -20.5 q-37 0 -69.5 11.5t-65 23.5t-63.5 23.5t-62 11.5q-78 0 -117.5 -23.5t-62.5 -48.5z" />
<glyph unicode="&#xd6;" horiz-adv-x="1865" d="M121 0zM121 457v495q0 129 20.5 217t71.5 141.5t135 76t213 22.5h744q125 0 209.5 -22.5t136 -76t73 -141.5t21.5 -217v-495q0 -129 -21.5 -217t-73 -141.5t-136 -76t-209.5 -22.5h-744q-129 0 -213 22.5t-135 76t-71.5 141.5t-20.5 217zM395 455q0 -53 8.5 -87t28 -54.5 t51 -29t78.5 -8.5h742q94 0 129.5 37t35.5 142v495q0 104 -36.5 142t-128.5 38h-742q-92 0 -129 -37.5t-37 -142.5v-495zM551 1579v291h225v-291h-225zM1086 1579v291h227v-291h-227z" />
<glyph unicode="&#xd7;" horiz-adv-x="1220" d="M211 434l295 297l-295 295l102 102l295 -294l295 294l103 -102l-295 -295l295 -297l-103 -102l-295 297l-295 -297z" />
<glyph unicode="&#xd8;" horiz-adv-x="1865" d="M121 457v495q0 129 20.5 217t71.5 141.5t135 76t213 22.5h744h29.5t27.5 -2l117 152h194l-137 -179q115 -41 162 -141t47 -287v-495q0 -129 -21.5 -217t-73 -141.5t-136 -76t-209.5 -22.5h-744h-43t-39 2l-123 -160h-192l147 193q-109 41 -149.5 141t-40.5 281zM395 455 q0 -86 22.5 -125t82.5 -49l651 849h-590q-92 0 -129 -37.5t-37 -142.5v-495zM690 276h613q94 0 129.5 37t35.5 142v495q0 92 -27.5 131t-97.5 47z" />
<glyph unicode="&#xd9;" horiz-adv-x="1777" d="M121 0zM121 446v963h274v-963q0 -90 34 -130t116 -40h688q82 0 115.5 40t33.5 130v963h277v-963q0 -121 -22.5 -204.5t-73 -138t-132 -79t-198.5 -24.5h-688q-117 0 -198 24.5t-131 79t-72.5 138.5t-22.5 204zM516 1679v174l621 -202v-127z" />
<glyph unicode="&#xda;" horiz-adv-x="1777" d="M121 0zM121 446v963h274v-963q0 -90 34 -130t116 -40h688q82 0 115.5 40t33.5 130v963h277v-963q0 -121 -22.5 -204.5t-73 -138t-132 -79t-198.5 -24.5h-688q-117 0 -198 24.5t-131 79t-72.5 138.5t-22.5 204zM639 1524v127l621 202v-174z" />
<glyph unicode="&#xdb;" horiz-adv-x="1777" d="M121 0zM121 446v963h274v-963q0 -90 34 -130t116 -40h688q82 0 115.5 40t33.5 130v963h277v-963q0 -121 -22.5 -204.5t-73 -138t-132 -79t-198.5 -24.5h-688q-117 0 -198 24.5t-131 79t-72.5 138.5t-22.5 204zM557 1524l262 381h140l262 -381h-158l-172 286l-176 -286 h-158z" />
<glyph unicode="&#xdc;" horiz-adv-x="1777" d="M121 0zM121 446v963h274v-963q0 -90 34 -130t116 -40h688q82 0 115.5 40t33.5 130v963h277v-963q0 -121 -22.5 -204.5t-73 -138t-132 -79t-198.5 -24.5h-688q-117 0 -198 24.5t-131 79t-72.5 138.5t-22.5 204zM508 1579v291h225v-291h-225zM1043 1579v291h227v-291h-227z " />
<glyph unicode="&#xdd;" horiz-adv-x="1656" d="M18 0zM18 1409h320l491 -659l488 659h321l-680 -891v-518h-276v518zM579 1524v127l621 202v-174z" />
<glyph unicode="&#xde;" horiz-adv-x="1675" d="M121 0v1409h274v-195h781q121 0 202.5 -21.5t132 -73.5t72 -138t21.5 -213v-139q0 -113 -21.5 -192t-72 -128t-132.5 -71.5t-202 -22.5h-781v-215h-274zM395 467h781q94 0 123.5 41t29.5 119v141q0 90 -30.5 130t-122.5 40h-781v-471z" />
<glyph unicode="&#xdf;" horiz-adv-x="1570" d="M123 0v1165q0 203 103.5 288t281.5 85h94q180 0 259 -84t79 -285v-217q0 -35 13.5 -48t43.5 -13h58q90 0 162.5 -18.5t125 -61.5t80 -113.5t27.5 -175.5v-133q0 -207 -110.5 -298t-309.5 -91h-430v238h430q72 0 109 35.5t37 115.5v133q0 78 -34 104.5t-87 26.5h-58 q-160 0 -228.5 67.5t-68.5 231.5v217q0 76 -28.5 103.5t-89.5 27.5h-62q-61 0 -95 -27.5t-34 -105.5v-1167h-268z" />
<glyph unicode="&#xe0;" horiz-adv-x="1415" d="M94 0zM94 270v121q0 141 83 201.5t269 60.5h381q82 0 125 -13t74 -30v129q0 78 -47 102.5t-160 24.5h-639l27 240h647q135 0 221 -27.5t134 -75t66.5 -111t18.5 -134.5v-758q-59 0 -114.5 38t-71.5 136q-25 -76 -94.5 -125t-192.5 -49h-370q-195 0 -276 65.5t-81 204.5z M336 1376v174l621 -202v-127zM369 360q0 -70 28.5 -96t91.5 -26h334q74 0 132.5 24.5t70.5 93.5v97q-35 14 -80 22t-121 8h-333q-66 0 -94.5 -25.5t-28.5 -97.5z" />
<glyph unicode="&#xe1;" horiz-adv-x="1415" d="M94 0zM94 270v121q0 141 83 201.5t269 60.5h381q82 0 125 -13t74 -30v129q0 78 -47 102.5t-160 24.5h-639l27 240h647q135 0 221 -27.5t134 -75t66.5 -111t18.5 -134.5v-758q-59 0 -114.5 38t-71.5 136q-25 -76 -94.5 -125t-192.5 -49h-370q-195 0 -276 65.5t-81 204.5z M369 360q0 -70 28.5 -96t91.5 -26h334q74 0 132.5 24.5t70.5 93.5v97q-35 14 -80 22t-121 8h-333q-66 0 -94.5 -25.5t-28.5 -97.5zM459 1221v127l621 202v-174z" />
<glyph unicode="&#xe2;" horiz-adv-x="1415" d="M94 0zM94 270v121q0 141 83 201.5t269 60.5h381q82 0 125 -13t74 -30v129q0 78 -47 102.5t-160 24.5h-639l27 240h647q135 0 221 -27.5t134 -75t66.5 -111t18.5 -134.5v-758q-59 0 -114.5 38t-71.5 136q-25 -76 -94.5 -125t-192.5 -49h-370q-195 0 -276 65.5t-81 204.5z M369 360q0 -70 28.5 -96t91.5 -26h334q74 0 132.5 24.5t70.5 93.5v97q-35 14 -80 22t-121 8h-333q-66 0 -94.5 -25.5t-28.5 -97.5zM395 1221l262 381h140l262 -381h-158l-172 286l-176 -286h-158z" />
<glyph unicode="&#xe3;" horiz-adv-x="1415" d="M94 0zM94 270v121q0 141 83 201.5t269 60.5h381q82 0 125 -13t74 -30v129q0 78 -47 102.5t-160 24.5h-639l27 240h647q135 0 221 -27.5t134 -75t66.5 -111t18.5 -134.5v-758q-59 0 -114.5 38t-71.5 136q-25 -76 -94.5 -125t-192.5 -49h-370q-195 0 -276 65.5t-81 204.5z M369 360q0 -70 28.5 -96t91.5 -26h334q74 0 132.5 24.5t70.5 93.5v97q-35 14 -80 22t-121 8h-333q-66 0 -94.5 -25.5t-28.5 -97.5zM418 1288v127q29 35 70 55.5t110 20.5q37 0 71 -10.5t67.5 -23.5t67.5 -23.5t69 -10.5q70 0 106.5 22.5t59.5 47.5v-127q-31 -35 -73 -55.5 t-108 -20.5q-37 0 -69.5 11.5t-65 23.5t-63.5 23.5t-62 11.5q-78 0 -117.5 -23.5t-62.5 -48.5z" />
<glyph unicode="&#xe4;" horiz-adv-x="1415" d="M94 0zM94 270v121q0 141 83 201.5t269 60.5h381q82 0 125 -13t74 -30v129q0 78 -47 102.5t-160 24.5h-639l27 240h647q135 0 221 -27.5t134 -75t66.5 -111t18.5 -134.5v-758q-59 0 -114.5 38t-71.5 136q-25 -76 -94.5 -125t-192.5 -49h-370q-195 0 -276 65.5t-81 204.5z M346 1276v291h225v-291h-225zM369 360q0 -70 28.5 -96t91.5 -26h334q74 0 132.5 24.5t70.5 93.5v97q-35 14 -80 22t-121 8h-333q-66 0 -94.5 -25.5t-28.5 -97.5zM881 1276v291h227v-291h-227z" />
<glyph unicode="&#xe5;" horiz-adv-x="1415" d="M94 0zM94 270v121q0 141 83 201.5t269 60.5h381q82 0 125 -13t74 -30v129q0 78 -47 102.5t-160 24.5h-639l27 240h647q135 0 221 -27.5t134 -75t66.5 -111t18.5 -134.5v-758q-59 0 -114.5 38t-71.5 136q-25 -76 -94.5 -125t-192.5 -49h-370q-195 0 -276 65.5t-81 204.5z M369 360q0 -70 28.5 -96t91.5 -26h334q74 0 132.5 24.5t70.5 93.5v97q-35 14 -80 22t-121 8h-333q-66 0 -94.5 -25.5t-28.5 -97.5zM463 1313v106q0 88 53.5 135.5t161.5 47.5h96q111 0 164.5 -47.5t53.5 -135.5v-106q0 -88 -53.5 -135.5t-164.5 -47.5h-96q-109 0 -162 47.5 t-53 135.5zM582 1317q0 -74 92 -74h107q92 0 92 74v98q0 74 -92 74h-107q-92 0 -92 -74v-98z" />
<glyph unicode="&#xe6;" horiz-adv-x="2359" d="M94 270v121q0 141 83 201.5t269 60.5h381q80 0 124 -13t75 -30v131q0 66 -37 95.5t-131 29.5h-678l27 240h647q111 0 187.5 -20.5t125.5 -55.5q102 76 285 76h367q203 0 314.5 -92t111.5 -297v-262h-945v-66q0 -51 14.5 -80.5t40 -45t61.5 -20.5t79 -5h727l-37 -238h-733 q-125 0 -214 34t-142 107q-33 -61 -99.5 -101t-175.5 -40h-370q-195 0 -276 65.5t-81 204.5zM369 356q0 -119 104 -118h354q72 0 129.5 24.5t69.5 93.5v90q-35 14 -79 21.5t-118 7.5h-356q-53 0 -78.5 -26.5t-25.5 -92.5zM1300 633h670v59q0 92 -33.5 133t-117.5 41h-342 q-94 0 -135.5 -31.5t-41.5 -117.5v-84z" />
<glyph unicode="&#xe7;" horiz-adv-x="1378" d="M121 0zM121 389v328q0 207 111.5 298t312.5 91h454q68 0 118 -18.5t85 -45t55.5 -58.5t30.5 -56l-149 -156q-18 39 -51 67.5t-103 28.5h-440q-72 0 -112 -36.5t-40 -114.5v-328q0 -78 40 -114.5t112 -36.5h450q70 0 104 28.5t50 65.5l151 -154q-10 -25 -31.5 -56.5 t-56 -58t-85 -45t-117.5 -18.5h-465q-201 0 -312.5 91t-111.5 298zM549 -63h281v-232l-174 -242l-99 37l84 181h-92v256z" />
<glyph unicode="&#xe8;" horiz-adv-x="1452" d="M121 0zM121 389v328q0 207 111.5 298t312.5 91h366q201 0 313.5 -91t112.5 -298v-260h-944v-68q0 -86 40 -118.5t112 -32.5h770l-35 -238h-735q-201 0 -312.5 91t-111.5 298zM354 1376v174l621 -202v-127zM393 629h670v73q0 90 -35 128t-117 38h-366q-82 0 -117 -36.5 t-35 -114.5v-88z" />
<glyph unicode="&#xe9;" horiz-adv-x="1452" d="M121 0zM121 389v328q0 207 111.5 298t312.5 91h366q201 0 313.5 -91t112.5 -298v-260h-944v-68q0 -86 40 -118.5t112 -32.5h770l-35 -238h-735q-201 0 -312.5 91t-111.5 298zM393 629h670v73q0 90 -35 128t-117 38h-366q-82 0 -117 -36.5t-35 -114.5v-88zM477 1221v127 l621 202v-174z" />
<glyph unicode="&#xea;" horiz-adv-x="1452" d="M121 0zM121 389v328q0 207 111.5 298t312.5 91h366q201 0 313.5 -91t112.5 -298v-260h-944v-68q0 -86 40 -118.5t112 -32.5h770l-35 -238h-735q-201 0 -312.5 91t-111.5 298zM393 629h670v73q0 90 -35 128t-117 38h-366q-82 0 -117 -36.5t-35 -114.5v-88zM393 1221 l262 381h140l262 -381h-158l-172 286l-176 -286h-158z" />
<glyph unicode="&#xeb;" horiz-adv-x="1452" d="M121 0zM121 389v328q0 207 111.5 298t312.5 91h366q201 0 313.5 -91t112.5 -298v-260h-944v-68q0 -86 40 -118.5t112 -32.5h770l-35 -238h-735q-201 0 -312.5 91t-111.5 298zM344 1276v291h225v-291h-225zM393 629h670v73q0 90 -35 128t-117 38h-366q-82 0 -117 -36.5 t-35 -114.5v-88zM879 1276v291h227v-291h-227z" />
<glyph unicode="&#xec;" d="M-101 1376v174l621 -202v-127zM0 0zM131 0v1106h275v-1106h-275z" />
<glyph unicode="&#xed;" d="M22 1221v127l621 202v-174zM23 0zM131 0v1106h275v-1106h-275z" />
<glyph unicode="&#xee;" d="M-62 1221l262 381h140l262 -381h-158l-172 286l-176 -286h-158zM0 0zM131 0v1106h275v-1106h-275z" />
<glyph unicode="&#xef;" d="M-111 1276v291h225v-291h-225zM0 0zM131 0v1106h275v-1106h-275zM424 1276v291h227v-291h-227z" />
<glyph unicode="&#xf0;" horiz-adv-x="1458" d="M119 389v217q0 94 28.5 156.5t84 99.5t134 52.5t179.5 15.5h266q57 0 99 -9.5t71 -25.5t48.5 -38.5t33.5 -47.5v92q0 117 -42 197t-122 145l-387 -211l-51 80l346 188q-74 39 -145.5 53.5t-178.5 16.5l97 189q121 0 237.5 -32t220.5 -102l236 131l47 -81l-199 -111 q96 -86 154.5 -208t58.5 -290v-477q0 -203 -106.5 -296t-317.5 -93h-366q-201 0 -313.5 91t-112.5 298zM393 444q0 -68 9.5 -107.5t30 -62t52 -29.5t78.5 -7h328q96 0 134 30.5t38 120.5v191q-12 49 -28.5 79.5t-43 48t-65.5 23.5t-97 6h-268q-100 0 -134 -33.5t-34 -115.5 v-144z" />
<glyph unicode="&#xf1;" horiz-adv-x="1435" d="M123 0v1106h262v-160q45 88 104.5 124t157.5 36h242q121 0 203 -26.5t131 -82t70.5 -138.5t21.5 -195v-664h-275v698q0 86 -32.5 128t-118.5 42h-357q-59 0 -89.5 -25.5t-47.5 -80.5v-762h-272zM123 0zM448 1288v127q29 35 70 55.5t110 20.5q37 0 71 -10.5t67.5 -23.5 t67.5 -23.5t69 -10.5q70 0 106.5 22.5t59.5 47.5v-127q-31 -35 -73 -55.5t-108 -20.5q-37 0 -69.5 11.5t-65 23.5t-63.5 23.5t-62 11.5q-78 0 -117.5 -23.5t-62.5 -48.5z" />
<glyph unicode="&#xf2;" horiz-adv-x="1458" d="M121 0zM121 389v328q0 207 100.5 298t323.5 91h366q225 0 325.5 -91t100.5 -298v-328q0 -207 -100 -298t-326 -91h-366q-223 0 -323.5 91t-100.5 298zM356 1376v174l621 -202v-127zM393 389q0 -86 37 -118.5t115 -32.5h366q78 0 115 32.5t37 118.5v328q0 86 -37 118.5 t-115 32.5h-366q-78 0 -115 -32.5t-37 -118.5v-328z" />
<glyph unicode="&#xf3;" horiz-adv-x="1458" d="M121 0zM121 389v328q0 207 100.5 298t323.5 91h366q225 0 325.5 -91t100.5 -298v-328q0 -207 -100 -298t-326 -91h-366q-223 0 -323.5 91t-100.5 298zM393 389q0 -86 37 -118.5t115 -32.5h366q78 0 115 32.5t37 118.5v328q0 86 -37 118.5t-115 32.5h-366 q-78 0 -115 -32.5t-37 -118.5v-328zM479 1221v127l621 202v-174z" />
<glyph unicode="&#xf4;" horiz-adv-x="1458" d="M121 0zM121 389v328q0 207 100.5 298t323.5 91h366q225 0 325.5 -91t100.5 -298v-328q0 -207 -100 -298t-326 -91h-366q-223 0 -323.5 91t-100.5 298zM393 389q0 -86 37 -118.5t115 -32.5h366q78 0 115 32.5t37 118.5v328q0 86 -37 118.5t-115 32.5h-366 q-78 0 -115 -32.5t-37 -118.5v-328zM397 1221l262 381h140l262 -381h-158l-172 286l-176 -286h-158z" />
<glyph unicode="&#xf5;" horiz-adv-x="1458" d="M121 0zM121 389v328q0 207 100.5 298t323.5 91h366q225 0 325.5 -91t100.5 -298v-328q0 -207 -100 -298t-326 -91h-366q-223 0 -323.5 91t-100.5 298zM393 389q0 -86 37 -118.5t115 -32.5h366q78 0 115 32.5t37 118.5v328q0 86 -37 118.5t-115 32.5h-366 q-78 0 -115 -32.5t-37 -118.5v-328zM418 1288v127q29 35 70 55.5t110 20.5q37 0 71 -10.5t67.5 -23.5t67.5 -23.5t69 -10.5q70 0 106.5 22.5t59.5 47.5v-127q-31 -35 -73 -55.5t-108 -20.5q-37 0 -69.5 11.5t-65 23.5t-63.5 23.5t-62 11.5q-78 0 -117.5 -23.5t-62.5 -48.5z " />
<glyph unicode="&#xf6;" horiz-adv-x="1458" d="M121 0zM121 389v328q0 207 100.5 298t323.5 91h366q225 0 325.5 -91t100.5 -298v-328q0 -207 -100 -298t-326 -91h-366q-223 0 -323.5 91t-100.5 298zM348 1276v291h225v-291h-225zM393 389q0 -86 37 -118.5t115 -32.5h366q78 0 115 32.5t37 118.5v328q0 86 -37 118.5 t-115 32.5h-366q-78 0 -115 -32.5t-37 -118.5v-328zM883 1276v291h227v-291h-227z" />
<glyph unicode="&#xf7;" horiz-adv-x="1220" d="M119 156zM119 657v146h981v-146h-981zM483 156v297h254v-297h-254zM483 1008v297h254v-297h-254z" />
<glyph unicode="&#xf8;" horiz-adv-x="1458" d="M121 389v328q0 207 100.5 298t323.5 91h377l94 182h194l-104 -205q121 -35 176 -124t55 -242v-328q0 -207 -100 -298t-326 -91h-358l-80 -158h-192l88 176q-129 31 -188.5 121t-59.5 250zM393 389q0 -66 21.5 -100.5t68.5 -44.5l318 624h-256q-78 0 -115 -32.5 t-37 -118.5v-328zM674 238h237q78 0 115 32.5t37 118.5v328q0 113 -74 139z" />
<glyph unicode="&#xf9;" horiz-adv-x="1400" d="M121 0zM121 442v664h272v-698q0 -86 34 -128t118 -42h323q59 0 93 32.5t45 79.5v756h274v-1106q-33 0 -64.5 10t-57 31.5t-43 54.5t-21.5 80q-29 -90 -106 -133t-220 -43h-223q-121 0 -202 26.5t-130 82t-70.5 138.5t-21.5 195zM328 1376v174l621 -202v-127z" />
<glyph unicode="&#xfa;" horiz-adv-x="1400" d="M121 0zM121 442v664h272v-698q0 -86 34 -128t118 -42h323q59 0 93 32.5t45 79.5v756h274v-1106q-33 0 -64.5 10t-57 31.5t-43 54.5t-21.5 80q-29 -90 -106 -133t-220 -43h-223q-121 0 -202 26.5t-130 82t-70.5 138.5t-21.5 195zM450 1221v127l621 202v-174z" />
<glyph unicode="&#xfb;" horiz-adv-x="1400" d="M121 0zM121 442v664h272v-698q0 -86 34 -128t118 -42h323q59 0 93 32.5t45 79.5v756h274v-1106q-33 0 -64.5 10t-57 31.5t-43 54.5t-21.5 80q-29 -90 -106 -133t-220 -43h-223q-121 0 -202 26.5t-130 82t-70.5 138.5t-21.5 195zM368 1221l262 381h140l262 -381h-158 l-172 286l-176 -286h-158z" />
<glyph unicode="&#xfc;" horiz-adv-x="1400" d="M121 0zM121 442v664h272v-698q0 -86 34 -128t118 -42h323q59 0 93 32.5t45 79.5v756h274v-1106q-33 0 -64.5 10t-57 31.5t-43 54.5t-21.5 80q-29 -90 -106 -133t-220 -43h-223q-121 0 -202 26.5t-130 82t-70.5 138.5t-21.5 195zM319 1276v291h225v-291h-225zM854 1276 v291h227v-291h-227z" />
<glyph unicode="&#xfd;" horiz-adv-x="1380" d="M23 0zM23 1106h303l383 -819l358 819h291l-514 -1077q-41 -86 -89 -151.5t-106.5 -108.5t-130.5 -65.5t-164 -22.5q-63 0 -137 7t-143 40l127 258q41 -20 84 -29.5t100 -9.5q63 0 109.5 28.5t70.5 75.5zM461 1221v127l621 202v-174z" />
<glyph unicode="&#xfe;" horiz-adv-x="1460" d="M121 -319v1765q68 23 137.5 45t136.5 45v-592q45 88 105.5 125t158.5 37h252q121 0 203 -26.5t131 -80t70.5 -133.5t21.5 -186v-256q0 -104 -21.5 -184t-70.5 -133.5t-131 -80t-203 -26.5h-252q-98 0 -158.5 36t-105.5 124v-479h-274zM395 342q14 -61 52 -82.5t106 -21.5 h338q96 0 135 37.5t39 130.5v270q0 109 -37 149.5t-137 40.5h-338q-68 0 -105.5 -21.5t-52.5 -82.5v-420z" />
<glyph unicode="&#xff;" horiz-adv-x="1380" d="M23 0zM23 1106h303l383 -819l358 819h291l-514 -1077q-41 -86 -89 -151.5t-106.5 -108.5t-130.5 -65.5t-164 -22.5q-63 0 -137 7t-143 40l127 258q41 -20 84 -29.5t100 -9.5q63 0 109.5 28.5t70.5 75.5zM330 1276v291h225v-291h-225zM865 1276v291h227v-291h-227z" />
<glyph unicode="&#x152;" horiz-adv-x="2689" d="M121 457v495q0 131 20.5 219.5t70.5 141.5t134 74.5t213 21.5h2036v-279h-979v-309h948v-233h-948v-312h979v-276h-2036q-129 0 -213 22.5t-134 77t-70.5 141.5t-20.5 216zM395 498q0 -55 5.5 -97.5t22.5 -70t50 -41t88 -13.5h776v854h-776q-94 0 -130 -37.5t-36 -140.5 v-454z" />
<glyph unicode="&#x153;" horiz-adv-x="2394" d="M121 389v328q0 207 100.5 298t323.5 91h366q100 0 172 -18.5t121 -53.5q106 72 285 72h366q199 0 311.5 -91t112.5 -298v-260h-942v-76q0 -80 40 -111.5t112 -31.5h768l-35 -238h-733q-182 0 -285 72q-96 -72 -293 -72h-366q-223 0 -323.5 91t-100.5 298zM393 389 q0 -86 37 -118.5t115 -32.5h366q78 0 115 32.5t37 118.5v328q0 86 -37 118.5t-115 32.5h-366q-78 0 -115 -32.5t-37 -118.5v-328zM1337 629h670v73q0 90 -36 128t-116 38h-366q-82 0 -117 -36.5t-35 -114.5v-88z" />
<glyph unicode="&#x178;" horiz-adv-x="1656" d="M18 0zM18 1409h320l491 -659l488 659h321l-680 -891v-518h-276v518zM448 1579v291h225v-291h-225zM983 1579v291h227v-291h-227z" />
<glyph unicode="&#x2c6;" horiz-adv-x="933" d="M135 1221l262 381h140l262 -381h-158l-172 286l-176 -286h-158z" />
<glyph unicode="&#x2dc;" horiz-adv-x="892" d="M135 1288v127q29 35 70 55.5t110 20.5q37 0 71 -10.5t67.5 -23.5t67.5 -23.5t69 -10.5q70 0 106.5 22.5t59.5 47.5v-127q-31 -35 -73 -55.5t-108 -20.5q-37 0 -69.5 11.5t-65 23.5t-63.5 23.5t-62 11.5q-78 0 -117.5 -23.5t-62.5 -48.5z" />
<glyph unicode="&#x2000;" horiz-adv-x="952" />
<glyph unicode="&#x2001;" horiz-adv-x="1905" />
<glyph unicode="&#x2002;" horiz-adv-x="952" />
<glyph unicode="&#x2003;" horiz-adv-x="1905" />
<glyph unicode="&#x2004;" horiz-adv-x="635" />
<glyph unicode="&#x2005;" horiz-adv-x="476" />
<glyph unicode="&#x2006;" horiz-adv-x="317" />
<glyph unicode="&#x2007;" horiz-adv-x="317" />
<glyph unicode="&#x2008;" horiz-adv-x="238" />
<glyph unicode="&#x2009;" horiz-adv-x="381" />
<glyph unicode="&#x200a;" horiz-adv-x="105" />
<glyph unicode="&#x2010;" horiz-adv-x="663" d="M59 510v178h545v-178h-545z" />
<glyph unicode="&#x2011;" horiz-adv-x="663" d="M59 510v178h545v-178h-545z" />
<glyph unicode="&#x2012;" horiz-adv-x="663" d="M59 510v178h545v-178h-545z" />
<glyph unicode="&#x2013;" horiz-adv-x="876" d="M59 510v178h760v-178h-760z" />
<glyph unicode="&#x2014;" horiz-adv-x="1402" d="M59 510v178h1289v-178h-1289z" />
<glyph unicode="&#x2018;" horiz-adv-x="471" d="M104 1071v266l164 299l92 -49l-84 -219h84v-297h-256z" />
<glyph unicode="&#x2019;" horiz-adv-x="471" d="M121 940l82 223h-82v297h256v-268l-166 -297z" />
<glyph unicode="&#x201a;" horiz-adv-x="471" d="M121 0v297h256v-266l-166 -299l-90 47l82 221h-82z" />
<glyph unicode="&#x201c;" horiz-adv-x="942" d="M104 1071v266l164 299l92 -49l-84 -219h84v-297h-256zM104 1071zM575 1071v266l164 299l92 -49l-84 -219h84v-297h-256z" />
<glyph unicode="&#x201d;" horiz-adv-x="942" d="M121 895zM121 940l82 223h-82v297h256v-268l-166 -297zM592 940l82 223h-82v297h256v-268l-166 -297z" />
<glyph unicode="&#x201e;" horiz-adv-x="942" d="M121 0v297h256v-266l-166 -299l-90 47l82 221h-82zM121 0zM592 0v297h256v-266l-166 -299l-90 47l82 221h-82z" />
<glyph unicode="&#x2022;" horiz-adv-x="784" d="M111 678q0 137 74.5 207.5t203.5 70.5t205 -70.5t76 -207.5t-76 -208t-205 -71t-203.5 71t-74.5 208z" />
<glyph unicode="&#x2026;" horiz-adv-x="2467" d="M121 0v297h254v-297h-254zM121 0zM1108 0v297h254v-297h-254zM2095 0v297h254v-297h-254z" />
<glyph unicode="&#x202f;" horiz-adv-x="381" />
<glyph unicode="&#x2039;" horiz-adv-x="587" d="M57 696l375 398l96 -97l-286 -301l286 -305l-96 -94z" />
<glyph unicode="&#x203a;" horiz-adv-x="587" d="M59 391l287 305l-287 301l97 97l374 -398l-374 -399z" />
<glyph unicode="&#x205f;" horiz-adv-x="476" />
<glyph unicode="&#x20ac;" horiz-adv-x="1554" d="M45 508l25 145h112v113h-137l25 145h112v41q0 131 20.5 219.5t71 141.5t134.5 74.5t213 21.5h901l-158 -279h-741q-92 0 -129 -39.5t-37 -138.5v-41h784l-82 -145h-702v-113h641l-82 -145h-559v-51q0 -104 35.5 -142.5t128.5 -38.5h815v-276h-815q-129 0 -213 22.5 t-134.5 77t-71 141.5t-20.5 216v51h-137z" />
<glyph unicode="&#x2122;" horiz-adv-x="1574" d="M88 1296v113h533v-113h-205v-624h-117v624h-211zM737 672v737h144l215 -532l217 532h143v-737h-115v506l-200 -506h-90l-199 504v-504h-115z" />
<glyph unicode="&#x25fc;" horiz-adv-x="1105" d="M0 0v1106h1106v-1106h-1106z" />
<glyph unicode="&#xfb01;" horiz-adv-x="1196" d="M20 0zM20 903l33 203h94v31q0 117 35 194.5t95.5 125.5t139.5 68.5t167 24.5l32 -211q-51 -4 -89 -16t-62.5 -35.5t-36.5 -62.5t-12 -99v-20h231l-35 -203h-196v-903h-269v903h-127zM790 0v1106h275v-1106h-275zM790 1202v293h277v-293h-277z" />
<glyph unicode="&#xfb02;" horiz-adv-x="1179" d="M20 0zM20 903l33 203h94v31q0 117 35 194.5t95.5 125.5t139.5 68.5t167 24.5l32 -211q-51 -4 -89 -16t-62.5 -35.5t-36.5 -62.5t-12 -99v-20h231l-35 -203h-196v-903h-269v903h-127zM782 0v1446l272 92v-1538h-272z" />
</font>
</defs>
</svg>
